<svg width="72" height="72" viewBox="0 0 72 72" fill="none" xmlns="http://www.w3.org/2000/svg">
<path d="M60.2824 1.09394L61.3735 5.16577L16.2981 17.1758L17.3907 21.2534L9.2413 23.4372L10.3332 27.5119L6.25841 28.6038L4.07478 20.4543L0 21.5461L5.45914 41.9199L9.53392 40.828L7.35029 32.6785L11.4251 31.5866L12.517 35.6613L20.6665 33.4777L21.7561 37.5442L30.7505 35.1733C31.3186 36.0144 32.0836 36.7123 32.9786 37.2004L17.8154 67.7792H12.7961V71.9977H20.4322L33.8885 44.8609V67.7792H29.67V71.9977H42.3255V67.7792H38.107V44.8609L51.5633 71.9977H59.1994V67.7792H54.1801L39.0171 37.2004C40.8632 36.1937 42.1538 34.2938 42.308 32.0856L66.8328 25.5403L67.9252 29.6171L72 28.5252L64.3572 0.00219727L60.2824 1.09394ZM15.4997 30.4948L14.4078 26.42L18.4826 25.3282L19.5745 29.4029L15.4997 30.4948ZM21.4663 20.1646L54.3129 11.4128L57.5895 23.6412L41.1827 28.0198C40.0375 26.3849 38.141 25.313 35.9979 25.313C32.695 25.313 29.9766 27.8573 29.6958 31.0886L24.7434 32.3941L21.4663 20.1646ZM35.9977 33.7501C34.8347 33.7501 33.8885 32.8039 33.8885 31.6408C33.8885 30.4778 34.8347 29.5316 35.9977 29.5316C37.1608 29.5316 38.107 30.4778 38.107 31.6408C38.107 32.8039 37.1608 33.7501 35.9977 33.7501ZM61.6651 22.5535L58.3891 10.3268L62.4654 9.24068L65.741 21.4657L61.6651 22.5535Z" fill="url(#paint0_linear_112_1052)"/>
<defs>
<linearGradient id="paint0_linear_112_1052" x1="72" y1="71.9977" x2="0.156464" y2="68.6449" gradientUnits="userSpaceOnUse">
<stop stop-color="#007719"/>
<stop offset="1" stop-color="#399E20"/>
</linearGradient>
</defs>
</svg>
