<svg width="72" height="72" viewBox="0 0 72 72" fill="none" xmlns="http://www.w3.org/2000/svg">
<path d="M53.5778 72V56.3543C63.8755 51.4744 70.4528 41.1515 70.4528 29.6719C70.4528 13.3107 57.2051 0 40.9216 0C25.5784 0 12.9116 11.8673 11.539 26.973L1.54688 46.5469H11.3905V63.4219H24.0467V72H53.5778ZM15.6091 59.2031V42.3281H8.43708L15.6774 28.1448L15.7096 27.723C16.7158 14.543 27.7902 4.21875 40.9216 4.21875C54.8789 4.21875 66.2341 15.6369 66.2341 29.6719C66.2341 47.9891 49.4632 53.4952 49.3591 53.5795V67.7812H28.2653V59.2031H15.6091Z" fill="#399E20"/>
<path d="M38.812 46.4152V50.7656H43.0308V46.4152C50.6526 45.4605 56.7101 39.403 57.6648 31.7812H62.0151V27.5625H57.6648C56.7101 19.9406 50.6525 13.8832 43.0308 12.9285V8.4375H38.812V12.9285C31.1901 13.8832 25.1327 19.9406 24.178 27.5625H19.8276V31.7812H24.178C25.1327 39.4031 31.1901 45.4605 38.812 46.4152ZM28.4419 27.5625C29.3335 22.2706 33.5202 18.084 38.812 17.1924V21.2344H43.0308V17.1924C48.3226 18.084 52.5093 22.2706 53.4009 27.5625H49.3589V31.7798H53.4009C52.5093 37.0731 48.3226 41.2598 43.0308 42.1514V38.1094H38.812V42.1514C33.5202 41.2598 29.3335 37.0731 28.4419 31.7812H32.4839V27.5625H28.4419Z" fill="#399E20"/>
<path d="M38.812 27.5625H43.0308V31.7812H38.812V27.5625Z" fill="#399E20"/>
</svg>
