<svg width="72" height="72" viewBox="0 0 72 72" fill="none" xmlns="http://www.w3.org/2000/svg">
<path d="M21.2344 8.4375C14.2234 8.4375 8.4375 14.1327 8.4375 21.0938C8.4375 28.0481 14.2175 33.75 21.2344 33.75C28.213 33.75 33.8906 28.0724 33.8906 21.0938C33.8906 14.1151 28.213 8.4375 21.2344 8.4375ZM29.4048 18.9844H23.3438V12.9233C26.3043 13.688 28.6401 16.0238 29.4048 18.9844ZM12.6562 21.0938C12.6562 17.233 15.4555 13.878 19.125 12.926V21.4611L22.0108 29.494C21.7548 29.5175 21.4962 29.5311 21.2344 29.5311C16.5846 29.5312 12.6562 25.6673 12.6562 21.0938ZM25.9803 28.0657L24.2335 23.2017H29.4048C28.8866 25.2091 27.6467 26.9277 25.9803 28.0657Z" fill="#399E20"/>
<path d="M67.569 37.9688C66.5892 33.1605 62.3278 29.5312 57.2344 29.5312C52.1409 29.5312 47.8797 33.1605 46.8997 37.9688C41.7707 37.9688 8.32275 37.9688 4.21875 37.9688V4.21875H55.125V17.2378C52.6698 18.1086 50.9062 20.4532 50.9062 23.2031C50.9062 26.6925 53.745 29.5312 57.2344 29.5312C60.7237 29.5312 63.5625 26.6925 63.5625 23.2031C63.5625 20.4532 61.7989 18.1086 59.3438 17.2378V0H0V42.1875H44.8556L49.0743 72H65.3944L69.6132 42.1875H72V37.9688C70.4537 37.9688 69.4042 37.9688 67.569 37.9688ZM57.2344 25.3125C56.0713 25.3125 55.125 24.3662 55.125 23.2031C55.125 22.04 56.0713 21.0938 57.2344 21.0938C58.3975 21.0938 59.3438 22.04 59.3438 23.2031C59.3438 24.3662 58.3975 25.3125 57.2344 25.3125ZM57.2344 33.75C59.9843 33.75 62.3289 35.5137 63.1997 37.9688H51.2691C52.1398 35.5137 54.4845 33.75 57.2344 33.75ZM61.7306 67.7812H52.7382L49.1164 42.1875H65.3524L61.7306 67.7812Z" fill="#399E20"/>
<path d="M38.25 8.4375H50.9062V12.6562H38.25V8.4375Z" fill="#399E20"/>
<path d="M38.25 16.875H46.6875V21.0938H38.25V16.875Z" fill="#399E20"/>
</svg>
