<svg width="72" height="72" viewBox="0 0 72 72" fill="none" xmlns="http://www.w3.org/2000/svg">
<path d="M54.7393 0H17.2607L16.7383 4.21875H0V6.32812C0 14.8513 4.95633 22.8365 12.6269 26.6718L16.0772 28.397C17.91 33.4055 21.6246 37.7104 26.7038 40.1927C28.6733 41.1553 29.6719 43.5753 29.6719 47.3854C29.6719 50.6933 26.8883 55.125 24.0417 55.125C21.0646 55.125 20.3517 55.125 17.0156 55.125V59.3438H21.2344V67.7812H17.0156V72H54.9844V67.7812H50.7656V59.3438H54.9844V55.125C51.6772 55.125 50.9685 55.125 47.9578 55.125C45.1111 55.125 42.3276 50.6914 42.3276 47.382C42.3276 43.5714 43.3266 41.1511 45.2964 40.1885C50.346 37.7208 54.079 33.4309 55.9221 28.3973L59.3733 26.6716C67.0438 22.8365 72 14.8511 72 6.32812V4.21875H55.2615L54.7393 0ZM14.5135 22.8984C8.89819 20.0908 5.06714 14.5607 4.3432 8.4375H16.2159L14.9062 19.0198C14.7698 20.3846 14.7642 21.7441 14.8857 23.0844L14.5135 22.8984ZM46.5469 67.7812H38.1094V63.5625H33.8906V67.7812H25.4531V59.3438H46.5469V67.7812ZM43.4443 36.3981C41.0102 37.5875 38.109 40.4587 38.109 47.382C38.109 49.9351 39.1001 52.827 40.7607 55.125H31.2404C32.9001 52.8283 33.8906 49.9379 33.8906 47.3854C33.8906 40.4626 30.9898 37.5917 28.5562 36.4023C22.206 33.2989 18.4089 26.4937 19.1017 19.4635L20.9893 4.21875H51.0107L52.8983 19.4638C53.5908 26.4919 49.7939 33.2952 43.4443 36.3981ZM67.6567 8.4375C66.9329 14.5607 63.1017 20.0908 57.4867 22.8984L57.1141 23.0846C57.2358 21.7443 57.2302 20.3847 57.0938 19.0198L55.7837 8.4375H67.6567Z" fill="#399E20"/>
<path d="M35.9998 9.44043L32.4293 16.6753L24.4453 17.8355L30.2226 23.4668L28.8588 31.4184L35.9998 27.6642L43.1407 31.4184L41.7769 23.4668L47.5544 17.8355L39.5704 16.6753L35.9998 9.44043ZM37.5378 23.7066L35.9998 22.898L34.4618 23.7066L34.7555 21.994L33.5113 20.7811L35.2308 20.5312L35.9998 18.9731L36.7687 20.5312L38.4883 20.7811L37.244 21.994L37.5378 23.7066Z" fill="#399E20"/>
</svg>
