<svg width="72" height="72" viewBox="0 0 72 72" fill="none" xmlns="http://www.w3.org/2000/svg">
<g clip-path="url(#clip0_112_1069)">
<path d="M59.3433 35.8601V41.6769L55.1259 37.4595C54.3361 38.2432 51.9699 40.6486 38.1094 54.3246V71.9999H59.3433V65.7405L71.9992 54.2531V25.3135H69.8899C64.0745 25.3135 59.3433 30.0447 59.3433 35.8601ZM67.7806 52.385L55.1246 63.8724V67.7812H42.328V56.0884C44.3866 54.0564 51.0265 47.4994 55.1232 43.423L58.0968 46.3965L47.1727 57.2004L50.1393 60.1999L63.5619 46.9248V35.8601C63.5619 33.1101 65.3252 30.7641 67.7806 29.8935V52.385Z" fill="#399E20"/>
<path d="M12.6569 71.9999H33.8908V54.3246C19.7136 40.3361 17.9032 38.4806 16.8743 37.4595L12.6569 41.6769V35.8601C12.6569 30.0447 7.92571 25.3135 2.1103 25.3135H0.000976562V54.2531L12.6569 65.7405V71.9999ZM4.21963 52.385V29.8937C6.67502 30.7643 8.43828 33.1102 8.43828 35.8602V46.918L21.7121 60.1917L24.6951 57.2087L13.8933 46.4069L16.8771 43.4232C20.9739 47.4995 27.6139 54.0566 29.6723 56.0885V67.7814H16.8757V63.8725L4.21963 52.385Z" fill="#399E20"/>
<path d="M55.0215 12.9389C57.659 12.9389 59.8434 12.511 61.9318 10.4225L63.4231 8.93103L54.4921 0L53.0006 1.49129C50.912 3.57953 50.4841 5.7638 50.4841 8.40116V9.77138L49.8547 10.2408C46.3882 6.53835 41.4601 4.22048 36 4.22048C25.5323 4.22048 17.0161 12.7367 17.0161 23.2044C17.0161 33.6721 25.5323 42.1883 36 42.1883C46.4678 42.1883 54.984 33.6721 54.984 23.2044C54.984 19.7104 54.0341 16.4346 52.3806 13.6196L53.2933 12.939H55.0215V12.9389ZM54.7027 8.40116C54.7027 7.54745 54.7525 6.89665 54.8819 6.35596L57.067 8.54108C56.5262 8.67059 55.8751 8.72023 55.0214 8.72023H54.7026V8.40116H54.7027ZM50.7653 23.2043C50.7653 31.3458 44.1416 37.9695 36 37.9695C27.8585 37.9695 21.2348 31.3458 21.2348 23.2043C21.2348 15.0627 27.8585 8.43899 36 8.43899C40.0772 8.43899 43.7735 10.1002 46.4481 12.7811L43.0172 15.3397C41.1514 13.6732 38.6925 12.6576 36 12.6576C30.1846 12.6576 25.4534 17.3889 25.4534 23.2043C25.4534 29.0197 30.1846 33.7509 36 33.7509C41.8155 33.7509 46.5467 29.0197 46.5467 23.2043C46.5467 21.601 46.1854 20.0811 45.5428 18.719L48.9741 16.1601C50.1159 18.2549 50.7653 20.6552 50.7653 23.2043ZM42.328 23.2043C42.328 26.6935 39.4893 29.5322 36 29.5322C32.5108 29.5322 29.6721 26.6935 29.6721 23.2043C29.6721 19.715 32.5108 16.8763 36 16.8763C37.3018 16.8763 38.5125 17.2717 39.5195 17.9483L34.7389 21.5134L37.2611 24.8952L42.0441 21.3282C42.2286 21.9212 42.328 22.5514 42.328 23.2043Z" fill="#399E20"/>
</g>
<defs>
<clipPath id="clip0_112_1069">
<rect width="72" height="72" fill="white"/>
</clipPath>
</defs>
</svg>
