<svg width="56" height="56" viewBox="0 0 56 56" fill="none" xmlns="http://www.w3.org/2000/svg">
<path d="M28 0C22.4621 0 17.0486 1.64217 12.444 4.71885C7.83947 7.79553 4.25064 12.1685 2.13139 17.2849C0.012132 22.4012 -0.542361 28.0311 0.538025 33.4625C1.61841 38.894 4.28515 43.8831 8.20102 47.799C12.1169 51.7149 17.106 54.3816 22.5375 55.462C27.969 56.5424 33.5988 55.9879 38.7152 53.8686C43.8315 51.7494 48.2045 48.1605 51.2812 43.556C54.3578 38.9514 56 33.5379 56 28C55.992 20.5764 53.0394 13.4592 47.7901 8.20988C42.5409 2.9606 35.4236 0.00802919 28 0V0ZM51.3334 28C51.3361 32.5727 49.9869 37.0441 47.4553 40.852L44.674 38.0683C44.4559 37.8497 44.3334 37.5535 44.3334 37.2447V35C44.3334 33.1435 43.5959 31.363 42.2831 30.0503C40.9703 28.7375 39.1899 28 37.3334 28H30.3333C29.7145 28 29.121 27.7542 28.6834 27.3166C28.2458 26.879 28 26.2855 28 25.6667V24.5C28 24.1906 28.1229 23.8938 28.3417 23.675C28.5605 23.4563 28.8573 23.3333 29.1667 23.3333C30.7138 23.3333 32.1975 22.7188 33.2915 21.6248C34.3854 20.5308 35 19.0471 35 17.5V15.1667C35 14.8572 35.1229 14.5605 35.3417 14.3417C35.5605 14.1229 35.8573 14 36.1667 14H39.3843C40.9299 13.9956 42.4114 13.3819 43.5074 12.292L44.387 11.4123C46.5878 13.5778 48.3354 16.1598 49.528 19.0077C50.7206 21.8556 51.3343 24.9125 51.3334 28ZM4.78101 30.247L12.1497 37.6157C12.7981 38.2683 13.5697 38.7856 14.4197 39.1377C15.2696 39.4898 16.181 39.6696 17.101 39.6667H23.3333C23.9522 39.6667 24.5457 39.9125 24.9833 40.3501C25.4208 40.7877 25.6667 41.3812 25.6667 42V51.2143C20.3005 50.6666 15.2889 48.2794 11.4822 44.4578C7.67542 40.6361 5.30783 35.6153 4.78101 30.247ZM30.3333 51.2143V42C30.3333 40.1435 29.5959 38.363 28.2831 37.0503C26.9703 35.7375 25.1899 35 23.3333 35H17.101C16.7942 35.0002 16.4904 34.94 16.2069 34.8227C15.9235 34.7054 15.6659 34.5333 15.449 34.3163L5.04701 23.9143C5.71476 20.1185 7.3144 16.5478 9.70242 13.5226C12.0904 10.4974 15.1921 8.11232 18.7292 6.58143C22.2663 5.05055 26.1281 4.4217 29.9681 4.75132C33.8081 5.08094 37.5063 6.35872 40.7307 8.47L40.208 8.99267C39.9884 9.20927 39.6928 9.33151 39.3843 9.33333H36.1667C34.6196 9.33333 33.1359 9.94792 32.0419 11.0419C30.9479 12.1358 30.3333 13.6196 30.3333 15.1667V17.5C30.3333 17.8094 30.2104 18.1062 29.9916 18.325C29.7728 18.5438 29.4761 18.6667 29.1667 18.6667C27.6196 18.6667 26.1359 19.2812 25.0419 20.3752C23.9479 21.4692 23.3333 22.9529 23.3333 24.5V25.6667C23.3333 27.5232 24.0708 29.3037 25.3836 30.6164C26.6964 31.9292 28.4768 32.6667 30.3333 32.6667H37.3334C37.9522 32.6667 38.5457 32.9125 38.9833 33.3501C39.4209 33.7877 39.6667 34.3812 39.6667 35V37.2447C39.6711 38.7903 40.2848 40.2718 41.3747 41.3677L44.4944 44.4873C40.6944 48.3004 35.6898 50.6778 30.3333 51.2143Z" fill="url(#paint0_linear_124_116)"/>
<defs>
<linearGradient id="paint0_linear_124_116" x1="56" y1="56" x2="0.121679" y2="53.3925" gradientUnits="userSpaceOnUse">
<stop stop-color="#007719"/>
<stop offset="1" stop-color="#399E20"/>
</linearGradient>
</defs>
</svg>
