<svg width="56" height="56" viewBox="0 0 56 56" fill="none" xmlns="http://www.w3.org/2000/svg">
<path d="M44.3333 0H11.6667C5.23367 0 0 5.23367 0 11.6667V44.3333C0 50.7663 5.23367 56 11.6667 56H44.3333C50.7663 56 56 50.7663 56 44.3333V11.6667C56 5.23367 50.7663 0 44.3333 0ZM51.3333 44.3333C51.3333 48.1927 48.1927 51.3333 44.3333 51.3333H11.6667C7.80733 51.3333 4.66667 48.1927 4.66667 44.3333V11.6667C4.66667 7.80733 7.80733 4.66667 11.6667 4.66667H44.3333C48.1927 4.66667 51.3333 7.80733 51.3333 11.6667V44.3333ZM37.3333 32.6667C37.3333 36.526 34.1927 39.6667 30.3333 39.6667V42C30.3333 43.2903 29.2903 44.3333 28 44.3333C26.7097 44.3333 25.6667 43.2903 25.6667 42V39.6667H25.0413C22.5517 39.6667 20.2277 38.3273 18.9793 36.169C18.333 35.0513 18.7157 33.6257 19.8287 32.9817C20.9463 32.3307 22.372 32.718 23.016 33.831C23.4337 34.5543 24.2083 35 25.039 35H30.331C31.619 35 32.6643 33.9547 32.6643 32.6667C32.6643 31.7847 32.032 31.038 31.1617 30.8933L24.066 29.7103C20.9347 29.19 18.6643 26.5067 18.6643 23.3333C18.6643 19.474 21.805 16.3333 25.6643 16.3333V14C25.6643 12.712 26.7073 11.6667 27.9977 11.6667C29.288 11.6667 30.331 12.712 30.331 14V16.3333H30.9563C33.446 16.3333 35.77 17.675 37.0183 19.8333C37.6647 20.9487 37.282 22.3743 36.169 23.0207C35.049 23.667 33.6233 23.2843 32.9817 22.169C32.564 21.448 31.7893 21.0023 30.9587 21.0023H25.6667C24.3787 21.0023 23.3333 22.05 23.3333 23.3357C23.3333 24.2177 23.9657 24.9643 24.836 25.109L31.9317 26.292C35.063 26.8123 37.3333 29.4957 37.3333 32.669V32.6667Z" fill="url(#paint0_linear_92_413)"/>
<defs>
<linearGradient id="paint0_linear_92_413" x1="56" y1="56" x2="0.121679" y2="53.3924" gradientUnits="userSpaceOnUse">
<stop stop-color="#007719"/>
<stop offset="1" stop-color="#399E20"/>
</linearGradient>
</defs>
</svg>
