<svg width="56" height="52" viewBox="0 0 56 52" fill="none" xmlns="http://www.w3.org/2000/svg">
<path d="M51.4663 10.2033L34.2603 2.0063C30.4729 -0.256012 25.7588 -0.296153 21.9333 1.9013L4.53373 10.2033C4.46843 10.236 4.40073 10.271 4.33773 10.3083C0.208606 12.6693 -1.22486 17.9305 1.13611 22.0597C1.9364 23.4594 3.11361 24.6063 4.53373 25.37L9.33343 27.6567V39.09C9.33628 44.2025 12.6629 48.7193 17.5444 50.2387C20.9415 51.2214 24.4639 51.7026 28.0001 51.6667C31.5358 51.7063 35.0582 51.2292 38.4558 50.2504C43.3374 48.7311 46.664 44.2142 46.6668 39.1017V27.652L51.3335 25.4213V44.6666C51.3335 45.9552 52.3782 46.9999 53.6668 46.9999C54.9555 46.9999 56.0001 45.9552 56.0001 44.6666V16.6666C56.0157 13.9266 53.8522 11.3955 51.4663 10.2033ZM42 39.1017C42.0012 42.1597 40.0172 44.8647 37.1 45.782C34.1419 46.6273 31.0764 47.0375 28 47C24.9236 47.0375 21.8582 46.6273 18.9 45.782C15.9829 44.8646 13.9988 42.1597 14 39.1017V29.8804L21.7397 33.5671C23.6494 34.7011 25.8305 35.297 28.0514 35.2914C30.1654 35.3064 32.2439 34.7467 34.0644 33.6721L42 29.8803V39.1017ZM49.4667 21.1583L31.8687 29.5583C29.415 30.9871 26.3736 30.9466 23.9587 29.4533L6.74103 21.2633C4.82182 20.2284 4.10498 17.8336 5.13989 15.9145C5.48989 15.2655 6.01467 14.7275 6.65473 14.3613L24.143 6.008C26.5975 4.58241 29.6373 4.62277 32.053 6.113L49.259 14.31C50.5244 15.0126 51.316 16.3395 51.3333 17.7867C51.3356 19.1576 50.6297 20.4325 49.4667 21.1583Z" fill="url(#paint0_linear_92_417)"/>
<defs>
<linearGradient id="paint0_linear_92_417" x1="56.0002" y1="51.669" x2="0.143232" y2="48.8284" gradientUnits="userSpaceOnUse">
<stop stop-color="#007719"/>
<stop offset="1" stop-color="#399E20"/>
</linearGradient>
</defs>
</svg>
