<svg width="18" height="24" viewBox="0 0 18 24" fill="none" xmlns="http://www.w3.org/2000/svg">
<path d="M8.9999 0C4.3403 0 0.549561 3.85031 0.549561 8.58277V15.4175C0.549561 20.1499 4.3403 24 8.9999 24C13.6592 24 17.4502 20.1616 17.4502 15.4437V8.58277C17.4502 3.85031 13.6592 0 8.9999 0ZM15.8608 15.4437C15.8608 19.2853 12.7832 22.4106 8.9999 22.4106C5.21686 22.4106 2.139 19.2734 2.139 15.4172V8.58277C2.139 4.72659 5.21686 1.58939 8.9999 1.58939C12.7832 1.58939 15.8608 4.72659 15.8608 8.58277V15.4437Z" fill="url(#paint0_linear_92_283)"/>
<defs>
<linearGradient id="paint0_linear_92_283" x1="17.4502" y1="24" x2="0.567791" y2="23.4452" gradientUnits="userSpaceOnUse">
<stop stop-color="#007719"/>
<stop offset="1" stop-color="#399E20"/>
</linearGradient>
</defs>
</svg>
