<svg width="19" height="22" viewBox="0 0 19 22" fill="none" xmlns="http://www.w3.org/2000/svg">
<path d="M2.876 9.36C2.876 10.36 3.012 11.256 3.284 12.048C3.556 12.84 3.944 13.512 4.448 14.064C4.952 14.608 5.56 15.028 6.272 15.324C6.984 15.612 7.78 15.756 8.66 15.756C9.548 15.756 10.348 15.612 11.06 15.324C11.772 15.028 12.376 14.608 12.872 14.064C13.376 13.512 13.76 12.84 14.024 12.048C14.296 11.256 14.432 10.36 14.432 9.36C14.432 8.368 14.296 7.476 14.024 6.684C13.76 5.892 13.376 5.22 12.872 4.668C12.376 4.116 11.772 3.692 11.06 3.396C10.348 3.1 9.548 2.952 8.66 2.952C7.78 2.952 6.984 3.1 6.272 3.396C5.56 3.692 4.952 4.116 4.448 4.668C3.944 5.22 3.556 5.892 3.284 6.684C3.012 7.476 2.876 8.368 2.876 9.36ZM18.152 21.456H15.848C15.504 21.456 15.2 21.408 14.936 21.312C14.672 21.224 14.428 21.06 14.204 20.82L11.444 17.784C10.58 18.048 9.652 18.18 8.66 18.18C7.372 18.18 6.196 17.96 5.132 17.52C4.076 17.08 3.168 16.472 2.408 15.696C1.648 14.912 1.06 13.98 0.644 12.9C0.228 11.82 0.02 10.64 0.02 9.36C0.02 8.08 0.228 6.9 0.644 5.82C1.06 4.74 1.648 3.808 2.408 3.024C3.168 2.24 4.076 1.628 5.132 1.188C6.196 0.747999 7.372 0.527999 8.66 0.527999C9.956 0.527999 11.132 0.747999 12.188 1.188C13.252 1.628 14.16 2.24 14.912 3.024C15.672 3.808 16.26 4.74 16.676 5.82C17.092 6.9 17.3 8.08 17.3 9.36C17.3 10.152 17.22 10.908 17.06 11.628C16.9 12.34 16.668 13.008 16.364 13.632C16.06 14.248 15.688 14.816 15.248 15.336C14.808 15.848 14.308 16.296 13.748 16.68L18.152 21.456Z" fill="white"/>
</svg>
