<svg width="56" height="56" viewBox="0 0 56 56" fill="none" xmlns="http://www.w3.org/2000/svg">
<path d="M35.2123 37.3333C50.5423 37.2493 56 29.1293 56 22.1667C55.9985 20.3001 55.3577 18.4904 54.1842 17.0388C53.0108 15.5873 51.3755 14.5815 49.5507 14.189C49.868 13.286 50.1433 12.4577 50.3277 11.83C50.735 10.4649 50.815 9.023 50.5612 7.62118C50.3075 6.21937 49.727 4.89704 48.867 3.76134C48 2.58974 46.8693 1.63873 45.5664 0.985283C44.2636 0.331834 42.8252 -0.00569657 41.3677 1.01411e-05H14.6323C13.1748 -0.00569657 11.7364 0.331834 10.4336 0.985283C9.13073 1.63873 8.00004 2.58974 7.133 3.76134C6.27295 4.89704 5.69253 6.21937 5.43876 7.62118C5.18499 9.023 5.26501 10.4649 5.67233 11.83C5.85667 12.4577 6.139 13.286 6.44933 14.189C4.62451 14.5815 2.98922 15.5873 1.81575 17.0388C0.64228 18.4904 0.00146132 20.3001 0 22.1667C0 29.1293 5.45767 37.2493 20.7877 37.3333C20.9239 38.0417 20.995 38.761 21 39.4823V46.6667C21.0401 47.2899 20.9469 47.9145 20.7265 48.4989C20.5062 49.0833 20.1638 49.6139 19.7222 50.0555C19.2806 50.4971 18.7499 50.8395 18.1655 51.0599C17.5812 51.2802 16.9566 51.3734 16.3333 51.3333H14C13.3812 51.3333 12.7877 51.5792 12.3501 52.0168C11.9125 52.4543 11.6667 53.0478 11.6667 53.6667C11.6667 54.2855 11.9125 54.879 12.3501 55.3166C12.7877 55.7542 13.3812 56 14 56H42C42.6188 56 43.2123 55.7542 43.6499 55.3166C44.0875 54.879 44.3333 54.2855 44.3333 53.6667C44.3333 53.0478 44.0875 52.4543 43.6499 52.0168C43.2123 51.5792 42.6188 51.3333 42 51.3333H39.6853C39.0608 51.3754 38.4344 51.2837 37.8481 51.0644C37.2619 50.845 36.7292 50.503 36.2856 50.0613C35.8421 49.6195 35.498 49.0882 35.2763 48.5028C35.0546 47.9174 34.9604 47.2914 35 46.6667V39.48C35.0051 38.7595 35.0762 38.0409 35.2123 37.3333ZM47.8333 18.6667C48.7616 18.6667 49.6518 19.0354 50.3082 19.6918C50.9646 20.3482 51.3333 21.2384 51.3333 22.1667C51.3333 26.9127 47.579 31.9667 37.2493 32.5967C37.766 31.8916 38.3626 31.2487 39.0273 30.681C42.7467 27.3303 45.711 23.227 47.7237 18.6433C47.761 18.6457 47.7937 18.6667 47.8333 18.6667ZM4.66667 22.1667C4.66667 21.2384 5.03542 20.3482 5.69179 19.6918C6.34817 19.0354 7.23841 18.6667 8.16667 18.6667C8.20633 18.6667 8.239 18.6457 8.27633 18.6433C10.289 23.227 13.2533 27.3303 16.9727 30.681C17.6374 31.2487 18.234 31.8916 18.7507 32.5967C8.421 31.9667 4.66667 26.9127 4.66667 22.1667ZM24.5303 51.3333C25.3017 49.9005 25.693 48.2938 25.6667 46.6667V39.4823C25.6748 37.1347 25.1716 34.8134 24.192 32.6798C23.2124 30.5462 21.78 28.6515 19.9943 27.1273C15.2496 22.5926 11.8432 16.8405 10.1477 10.5C9.94843 9.83075 9.9101 9.1239 10.0358 8.43702C10.1615 7.75014 10.4477 7.10267 10.871 6.54734C11.3063 5.96057 11.8736 5.48454 12.5271 5.15781C13.1805 4.83108 13.9017 4.66283 14.6323 4.66668H41.3677C42.099 4.6639 42.8208 4.83359 43.4743 5.16197C44.1278 5.49036 44.6947 5.96818 45.129 6.55668C45.5523 7.112 45.8385 7.75948 45.9642 8.44635C46.0899 9.13323 46.0516 9.84009 45.8523 10.5093C44.1553 16.8465 40.749 22.5952 36.0057 27.1273C34.22 28.651 32.7876 30.5453 31.8081 32.6785C30.8285 34.8117 30.3253 37.1327 30.3333 39.48V46.6667C30.307 48.2938 30.6983 49.9005 31.4697 51.3333H24.5303Z" fill="url(#paint0_linear_124_118)"/>
<defs>
<linearGradient id="paint0_linear_124_118" x1="56" y1="56" x2="0.121679" y2="53.3925" gradientUnits="userSpaceOnUse">
<stop stop-color="#007719"/>
<stop offset="1" stop-color="#399E20"/>
</linearGradient>
</defs>
</svg>
