<svg width="56" height="56" viewBox="0 0 56 56" fill="none" xmlns="http://www.w3.org/2000/svg">
<path d="M17.5 30.3333C15.4233 30.3333 13.3932 29.7175 11.6665 28.5638C9.9398 27.41 8.59398 25.7701 7.79926 23.8515C7.00454 21.9329 6.79661 19.8217 7.20175 17.7849C7.6069 15.7481 8.60693 13.8772 10.0754 12.4087C11.5438 10.9403 13.4148 9.94024 15.4516 9.53509C17.4884 9.12995 19.5996 9.33788 21.5182 10.1326C23.4368 10.9273 25.0767 12.2731 26.2304 13.9998C27.3842 15.7266 28 17.7566 28 19.8333C27.9969 22.6172 26.8897 25.2861 24.9212 27.2545C22.9527 29.223 20.2838 30.3302 17.5 30.3333ZM17.5 14C16.3463 14 15.2185 14.3421 14.2592 14.9831C13.2999 15.6241 12.5522 16.5351 12.1107 17.601C11.6692 18.6669 11.5537 19.8398 11.7788 20.9714C12.0038 22.1029 12.5594 23.1423 13.3752 23.9581C14.191 24.7739 15.2304 25.3295 16.362 25.5546C17.4935 25.7797 18.6664 25.6641 19.7323 25.2226C20.7982 24.7811 21.7093 24.0334 22.3502 23.0742C22.9912 22.1149 23.3333 20.9871 23.3333 19.8333C23.3333 18.2862 22.7188 16.8025 21.6248 15.7085C20.5308 14.6146 19.0471 14 17.5 14ZM35 53.6667V52.5C35 47.8587 33.1563 43.4075 29.8744 40.1256C26.5925 36.8437 22.1413 35 17.5 35C12.8587 35 8.40752 36.8437 5.12563 40.1256C1.84374 43.4075 0 47.8587 0 52.5L0 53.6667C0 54.2855 0.245833 54.879 0.683417 55.3166C1.121 55.7542 1.71449 56 2.33333 56C2.95217 56 3.54566 55.7542 3.98325 55.3166C4.42083 54.879 4.66667 54.2855 4.66667 53.6667V52.5C4.66667 49.0964 6.01875 45.8322 8.42546 43.4255C10.8322 41.0187 14.0964 39.6667 17.5 39.6667C20.9036 39.6667 24.1678 41.0187 26.5745 43.4255C28.9813 45.8322 30.3333 49.0964 30.3333 52.5V53.6667C30.3333 54.2855 30.5792 54.879 31.0168 55.3166C31.4543 55.7542 32.0478 56 32.6667 56C33.2855 56 33.879 55.7542 34.3166 55.3166C34.7542 54.879 35 54.2855 35 53.6667ZM56 42C55.9999 38.8469 55.0872 35.7613 53.372 33.1155C51.6568 30.4698 49.2124 28.377 46.334 27.0899C43.4556 25.8028 40.2662 25.3764 37.1507 25.8621C34.0353 26.3477 31.127 27.7248 28.777 29.827C28.5455 30.0305 28.3565 30.2778 28.2211 30.5547C28.0857 30.8316 28.0065 31.1326 27.9881 31.4403C27.9696 31.748 28.0123 32.0562 28.1137 32.3473C28.2151 32.6384 28.3732 32.9065 28.5788 33.1362C28.7844 33.3658 29.0335 33.5525 29.3116 33.6853C29.5898 33.8181 29.8915 33.8946 30.1993 33.9101C30.5072 33.9257 30.815 33.8801 31.1052 33.776C31.3953 33.6719 31.6619 33.5114 31.8897 33.3037C33.5684 31.8024 35.6457 30.8192 37.8709 30.4725C40.0962 30.1259 42.3742 30.4307 44.43 31.3502C46.4858 32.2697 48.2315 33.7645 49.4565 35.6543C50.6815 37.544 51.3333 39.7479 51.3333 42C51.3333 42.6188 51.5792 43.2123 52.0167 43.6499C52.4543 44.0875 53.0478 44.3333 53.6667 44.3333C54.2855 44.3333 54.879 44.0875 55.3166 43.6499C55.7542 43.2123 56 42.6188 56 42ZM40.8333 21C38.7566 21 36.7266 20.3842 34.9998 19.2304C33.2731 18.0767 31.9273 16.4368 31.1326 14.5182C30.3379 12.5996 30.1299 10.4884 30.5351 8.45156C30.9402 6.41476 31.9403 4.54383 33.4087 3.07538C34.8772 1.60693 36.7481 0.606904 38.7849 0.201759C40.8217 -0.203386 42.9329 0.0045495 44.8515 0.79927C46.7701 1.59399 48.41 2.9398 49.5638 4.66652C50.7175 6.39323 51.3333 8.4233 51.3333 10.5C51.3302 13.2838 50.223 15.9528 48.2545 17.9212C46.2861 19.8897 43.6172 20.9969 40.8333 21ZM40.8333 4.66667C39.6796 4.66667 38.5518 5.00879 37.5925 5.64976C36.6332 6.29074 35.8855 7.20178 35.444 8.26768C35.0025 9.33359 34.887 10.5065 35.1121 11.638C35.3372 12.7696 35.8927 13.809 36.7085 14.6248C37.5243 15.4406 38.5637 15.9962 39.6953 16.2213C40.8269 16.4463 41.9998 16.3308 43.0657 15.8893C44.1316 15.4478 45.0426 14.7001 45.6836 13.7408C46.3245 12.7815 46.6667 11.6537 46.6667 10.5C46.6667 8.95291 46.0521 7.46918 44.9581 6.37521C43.8642 5.28125 42.3804 4.66667 40.8333 4.66667Z" fill="url(#paint0_linear_124_112)"/>
<defs>
<linearGradient id="paint0_linear_124_112" x1="56" y1="56" x2="0.121679" y2="53.3924" gradientUnits="userSpaceOnUse">
<stop stop-color="#007719"/>
<stop offset="1" stop-color="#399E20"/>
</linearGradient>
</defs>
</svg>
