<svg width="56" height="56" viewBox="0 0 56 56" fill="none" xmlns="http://www.w3.org/2000/svg">
<path d="M53.6667 32.6667H51.3333V11.6667C51.3296 8.57361 50.0993 5.6083 47.9122 3.42118C45.725 1.23406 42.7597 0.003705 39.6667 0L16.3333 0C13.2403 0.003705 10.275 1.23406 8.08785 3.42118C5.90072 5.6083 4.67037 8.57361 4.66667 11.6667V32.6667H2.33333C1.71449 32.6667 1.121 32.9125 0.683417 33.3501C0.245833 33.7877 0 34.3812 0 35C0 35.6188 0.245833 36.2123 0.683417 36.6499C1.121 37.0875 1.71449 37.3333 2.33333 37.3333H25.6667V46.6667H21C19.1435 46.6667 17.363 47.4042 16.0503 48.7169C14.7375 50.0297 14 51.8102 14 53.6667C14 54.2855 14.2458 54.879 14.6834 55.3166C15.121 55.7542 15.7145 56 16.3333 56C16.9522 56 17.5457 55.7542 17.9832 55.3166C18.4208 54.879 18.6667 54.2855 18.6667 53.6667C18.6667 53.0478 18.9125 52.4543 19.3501 52.0167C19.7877 51.5792 20.3812 51.3333 21 51.3333H35C35.6188 51.3333 36.2123 51.5792 36.6499 52.0167C37.0875 52.4543 37.3333 53.0478 37.3333 53.6667C37.3333 54.2855 37.5792 54.879 38.0167 55.3166C38.4543 55.7542 39.0478 56 39.6667 56C40.2855 56 40.879 55.7542 41.3166 55.3166C41.7542 54.879 42 54.2855 42 53.6667C42 51.8102 41.2625 50.0297 39.9497 48.7169C38.637 47.4042 36.8565 46.6667 35 46.6667H30.3333V37.3333H53.6667C54.2855 37.3333 54.879 37.0875 55.3166 36.6499C55.7542 36.2123 56 35.6188 56 35C56 34.3812 55.7542 33.7877 55.3166 33.3501C54.879 32.9125 54.2855 32.6667 53.6667 32.6667ZM9.33333 11.6667C9.33333 9.81015 10.0708 8.02967 11.3836 6.71692C12.6963 5.40416 14.4768 4.66667 16.3333 4.66667H39.6667C41.5232 4.66667 43.3037 5.40416 44.6164 6.71692C45.9292 8.02967 46.6667 9.81015 46.6667 11.6667V32.6667H9.33333V11.6667Z" fill="url(#paint0_linear_124_114)"/>
<defs>
<linearGradient id="paint0_linear_124_114" x1="56" y1="56" x2="0.121679" y2="53.3924" gradientUnits="userSpaceOnUse">
<stop stop-color="#007719"/>
<stop offset="1" stop-color="#399E20"/>
</linearGradient>
</defs>
</svg>
