<svg width="56" height="56" viewBox="0 0 56 56" fill="none" xmlns="http://www.w3.org/2000/svg">
<path d="M56 28C56 35.4261 53.05 42.548 47.799 47.799C42.548 53.05 35.4261 56 28 56C20.5739 56 13.452 53.05 8.20101 47.799C2.94999 42.548 0 35.4261 0 28C0 27.1437 0.0396667 26.2943 0.114333 25.4567L4.76233 25.879C4.69855 26.5774 4.66667 27.2844 4.66667 28C4.66667 32.6149 6.03514 37.1262 8.59904 40.9633C11.1629 44.8004 14.8071 47.7911 19.0707 49.5572C23.3343 51.3232 28.0259 51.7853 32.5521 50.885C37.0783 49.9847 41.2359 47.7624 44.4992 44.4992C47.7624 41.2359 49.9847 37.0783 50.885 32.5521C51.7853 28.0259 51.3232 23.3343 49.5572 19.0707C47.7911 14.8071 44.8004 11.1629 40.9633 8.59904C37.1262 6.03514 32.6149 4.66667 28 4.66667C27.2844 4.66667 26.5774 4.69855 25.879 4.76233L25.4567 0.114333C26.2943 0.0396667 27.1437 0 28 0C35.4236 0.00802919 42.5408 2.9606 47.7901 8.20988C53.0394 13.4592 55.992 20.5764 56 28ZM13.2137 9.947L10.255 6.33967C8.82282 7.51706 7.50984 8.83239 6.335 10.2667L9.94467 13.2183C10.9249 12.0238 12.0198 10.9281 13.2137 9.947ZM21.3313 5.635L19.999 1.16667C18.2225 1.69482 16.503 2.39828 14.8657 3.26667L17.0567 7.38733C18.4198 6.66257 19.8517 6.07555 21.3313 5.635ZM7.38267 17.0683L3.26667 14.875C2.39869 16.5125 1.69524 18.232 1.16667 20.0083L5.63967 21.3407C6.07727 19.8607 6.66115 18.4279 7.38267 17.0637V17.0683ZM25.6667 14V23.9797C24.9677 24.3863 24.3863 24.9677 23.9797 25.6667H16.3333V30.3333H23.9797C24.336 30.9522 24.83 31.4807 25.4234 31.878C26.0169 32.2753 26.6938 32.5306 27.4017 32.6242C28.1097 32.7178 28.8297 32.6472 29.506 32.4179C30.1823 32.1885 30.7967 31.8066 31.3016 31.3016C31.8066 30.7967 32.1885 30.1823 32.4179 29.506C32.6472 28.8297 32.7178 28.1097 32.6242 27.4017C32.5306 26.6938 32.2753 26.0169 31.878 25.4234C31.4807 24.83 30.9522 24.336 30.3333 23.9797V14H25.6667Z" fill="url(#paint0_linear_92_415)"/>
<defs>
<linearGradient id="paint0_linear_92_415" x1="56" y1="56" x2="0.121679" y2="53.3924" gradientUnits="userSpaceOnUse">
<stop stop-color="#007719"/>
<stop offset="1" stop-color="#399E20"/>
</linearGradient>
</defs>
</svg>
